PathFileType	4	(X/Y/Z)	C:/Users/opensim2020/Desktop/walking_exp_matlab/subject01_walking04_straight_02.trc																																																																																																																															
DataRate	CameraRate	NumFrames	NumMarkers	Units	OrigDataRate	OrigDataStartFrame	OrigNumFrames																																																																																																																											
100	100	8	43	mm	100	1548	261																																																																																																																											
Frame#	Time	LFHD			RFHD			LBHD			RBHD			C7			T10			CLAV			STRN			RBAK			LSHO			LUPA			LELB			LFRM			LWRA			LWRB			LFIN			RSHO			RUPA			RELB			RFRM			RWRA			RWRB			RFIN			LASI			RASI			LPSI			RPSI			LTHI			LKNE			LTIB			LANK			LHEE			LTOE			RTHI			RKNE			RTIB			RANK			RHEE			RTOE			*39			*40			*41			*42		
		X1	Y1	Z1	X2	Y2	Z2	X3	Y3	Z3	X4	Y4	Z4	X5	Y5	Z5	X6	Y6	Z6	X7	Y7	Z7	X8	Y8	Z8	X9	Y9	Z9	X10	Y10	Z10	X11	Y11	Z11	X12	Y12	Z12	X13	Y13	Z13	X14	Y14	Z14	X15	Y15	Z15	X16	Y16	Z16	X17	Y17	Z17	X18	Y18	Z18	X19	Y19	Z19	X20	Y20	Z20	X21	Y21	Z21	X22	Y22	Z22	X23	Y23	Z23	X24	Y24	Z24	X25	Y25	Z25	X26	Y26	Z26	X27	Y27	Z27	X28	Y28	Z28	X29	Y29	Z29	X30	Y30	Z30	X31	Y31	Z31	X32	Y32	Z32	X33	Y33	Z33	X34	Y34	Z34	X35	Y35	Z35	X36	Y36	Z36	X37	Y37	Z37	X38	Y38	Z38	X39	Y39	Z39	X40	Y40	Z40	X41	Y41	Z41	X42	Y42	Z42	X43	Y43	Z43
																																																																																																																																		
131	1.3	-502.63049	1666.95898	-1494.49719	-479.47214	1671.70947	-1382.60425	-619.03998	1623.22217	-1476.98218	-598.05109	1627.21313	-1357.80457	-656.65131	1427.06104	-1439.17249	-679.20404	1131.50085	-1429.32288	-511.46762	1364.19128	-1438.17383	-460.14914	1212.98193	-1445.05383	-701.05322	1227.09314	-1363.33521	-573.42267	1387.82056	-1599.77893	-586.28754	1206.35303	-1689.45862	-576.02924	1053.69861	-1704.53394	-486.41766	978.92426	-1730.42517	-357.8176	926.44153	-1713.60205	-401.51822	892.26617	-1737.22351	-324.43735	860.56287	-1749.30432	-575.82196	1388.05798	-1285.47632	-646.58008	1190.13953	-1190.62024	-656.2392	1067.64563	-1188.13342	-649.42908	949.25995	-1154.99939	-590.0545	819.9007	-1168.23694	-634.66168	829.28571	-1130.76855	-612.35352	745.51929	-1132.38281	-503.21103	926.68445	-1544.45837	-483.56497	934.88177	-1330.40991	-684.34509	943.79279	-1476.82568	-669.36914	947.28204	-1331.1178	-576.40887	595.67993	-1605.82263	-610.96387	464.78134	-1599.71228	-764.00366	353.74533	-1600.42639	-915.22632	191.58873	-1547.92773	-950.97467	211.92343	-1491.01929	-876.32288	45.79401	-1528.52612	-479.02649	605.64691	-1277.85388	-440.10559	453.86569	-1313.85095	-469.71445	279.02646	-1306.50378	-478.35568	75.49137	-1359.22156	-530.29449	37.55805	-1402.95276	-337.04135	37.53866	-1378.724	-493.28	1705.59729	-1403.88623	-1973.02246	1023.82544	3102.03784	-2012.54309	1021.92163	3140.59473	NaN	NaN	NaN
132	1.31	-492.36462	1668.03467	-1492.58447	-469.02853	1672.47278	-1380.73376	-608.71747	1624.24878	-1475.11169	-587.57288	1627.89868	-1355.92896	-646.30145	1427.995	-1437.50854	-668.7627	1132.46411	-1428.2998	-501.04617	1365.16858	-1437.03162	-449.629	1214.0957	-1444.3363	-690.1875	1228.02917	-1361.53674	-563.5741	1389.1012	-1598.42908	-577.7782	1207.52515	-1688.16187	-569.44934	1054.58582	-1702.02283	-481.30099	978.04565	-1728.1731	-353.44623	923.15991	-1711.604	-397.91049	889.82574	-1735.06738	-321.58939	856.37537	-1747.09668	-564.73016	1389.0094	-1284.10315	-634.46466	1190.82275	-1189.01257	-643.25854	1068.17468	-1186.59534	-635.16052	949.78827	-1153.4624	-574.56702	820.93671	-1167.00012	-619.03845	829.95593	-1129.47046	-596.1557	746.31	-1131.19348	-492.5018	927.86993	-1543.42944	-472.98651	936.13971	-1329.17603	-673.62927	944.17133	-1476.31824	-658.96436	948.22943	-1330.62231	-558.51257	595.04443	-1605.99268	-590.32031	463.72113	-1600.6123	-743.83185	354.85818	-1601.28101	-899.17133	198.25146	-1547.89172	-934.29468	220.27112	-1491.00549	-865.85358	50.62458	-1528.80066	-473.70328	605.53949	-1277.17957	-435.35718	453.39545	-1312.74158	-467.49411	278.85861	-1305.94397	-478.2038	75.48038	-1359.14734	-530.27148	37.76293	-1402.93396	-336.80249	37.20131	-1378.82593	-482.91025	1706.42407	-1401.83752	-1973.28748	1023.23419	3101.92261	-2012.47839	1021.83008	3140.61572	NaN	NaN	NaN
133	1.32	-482.0069	1669.18628	-1490.71655	-458.59979	1673.23352	-1378.84778	-598.36438	1625.36584	-1473.32251	-577.12079	1628.62073	-1354.1676	-635.95099	1429.01465	-1435.88757	-658.36737	1133.4917	-1427.28638	-490.71588	1366.20898	-1436.10107	-439.34286	1215.11035	-1443.75366	-679.42096	1229.06848	-1359.5957	-553.83893	1390.38184	-1597.24548	-569.49255	1208.65027	-1686.82422	-562.96667	1055.42957	-1699.54163	-476.3515	976.97418	-1725.86292	-349.35394	919.75494	-1709.53857	-394.62296	887.21198	-1732.71643	-318.92987	852.08972	-1744.71838	-553.5235	1389.84558	-1282.88745	-622.33276	1191.39612	-1187.41479	-630.302	1068.62708	-1185.01257	-620.86725	950.21539	-1151.98389	-558.86359	822.04974	-1165.88025	-603.27557	830.61694	-1128.19043	-579.45117	747.20404	-1130.05737	-482.14279	928.96106	-1542.62683	-462.57178	937.06812	-1327.85254	-663.20642	944.40057	-1475.76331	-648.88354	949.20532	-1330.12415	-540.95117	594.74817	-1605.90125	-569.85669	463.0032	-1601.17358	-723.35327	355.33353	-1602.31396	-882.33551	204.4763	-1546.54553	-916.93817	227.33376	-1489.22144	-852.84406	55.75956	-1529.74902	-468.74042	605.76807	-1276.86877	-431.22748	452.97681	-1311.90881	-465.40152	278.76822	-1305.37354	-477.75714	75.35265	-1359.04822	-530.17896	38.0713	-1402.94482	-336.53323	37.00787	-1378.9928	-472.54578	1707.22632	-1399.80957	-1973.1167	1023.96716	3101.96167	-2012.50928	1021.98163	3140.60791	NaN	NaN	NaN
134	1.33	-471.57776	1670.30676	-1488.91772	-448.14694	1673.99976	-1377.10779	-588.01984	1626.5177	-1471.66772	-566.73254	1629.39746	-1352.48364	-625.54395	1430.04016	-1434.30481	-648.06244	1134.46838	-1426.1333	-480.49338	1367.26733	-1435.35815	-429.04691	1216.12915	-1443.29333	-668.77783	1230.18176	-1357.68567	-544.21918	1391.66345	-1596.18616	-561.45337	1209.77661	-1685.50574	-556.65924	1056.27112	-1697.1698	-471.59302	975.85449	-1723.55566	-345.54648	916.26923	-1707.42493	-391.6485	884.59088	-1730.1925	-316.65982	847.96954	-1742.47034	-542.40198	1390.80151	-1281.93701	-610.05078	1192.14026	-1185.6637	-617.37939	1069.03748	-1183.37646	-606.40259	950.54816	-1150.49133	-542.78851	823.25372	-1164.82446	-587.10577	831.12378	-1127.02869	-562.3468	748.17645	-1128.96033	-471.87234	929.95013	-1541.90601	-453.14874	937.81891	-1327.01331	-652.9895	944.52478	-1475.151	-638.90344	949.97827	-1329.67712	-523.48853	594.98041	-1605.6908	-549.47241	462.57382	-1601.29382	-702.95728	355.76733	-1603.40112	-865.41162	210.96852	-1545.08423	-899.0755	233.08405	-1486.6748	-837.29614	61.43157	-1531.30957	-463.05893	605.35931	-1276.59998	-427.41879	452.5239	-1311.15247	-463.51004	278.59595	-1304.89868	-477.33798	75.55086	-1359.05603	-530.27863	38.53112	-1403.20789	-336.3172	36.81352	-1379.05273	-462.10425	1708.10571	-1397.98926	-1973.1333	1023.38794	3101.94043	-2012.4812	1021.91589	3140.7644	NaN	NaN	NaN
135	1.34	-461.19165	1671.39087	-1487.2688	-437.73203	1674.72034	-1375.45166	-577.67834	1627.6676	-1470.08447	-556.26263	1630.16406	-1350.87988	-615.19818	1431.07605	-1432.8894	-637.84961	1135.46106	-1424.99646	-470.26959	1368.26697	-1434.61768	-418.90158	1217.0376	-1442.93848	-658.31458	1231.38184	-1356.00073	-534.68903	1392.86694	-1595.25244	-553.5321	1211.12085	-1684.56958	-550.27338	1057.09766	-1694.7887	-466.98563	974.74567	-1721.24475	-342.05615	912.69849	-1705.3302	-388.86942	881.95868	-1727.99561	-314.69974	843.74524	-1740.08423	-531.20917	1391.68115	-1280.98254	-597.67261	1192.75269	-1183.97827	-604.37915	1069.38171	-1181.71936	-591.84332	950.92194	-1148.91089	-526.52216	824.70135	-1163.88867	-570.97693	831.74573	-1125.79065	-544.83673	749.2038	-1127.80652	-461.7785	930.95581	-1541.31946	-443.29074	938.53247	-1325.97632	-643.00336	944.638	-1474.58325	-629.38562	950.74988	-1329.17944	-506.26974	595.90576	-1605.70435	-529.2215	463.04129	-1601.74231	-682.39105	356.22369	-1603.65295	-847.19562	216.3689	-1543.51587	-880.41565	237.77153	-1484.21838	-819.73499	66.7169	-1533.04224	-457.06979	605.62689	-1276.21802	-423.70795	452.0773	-1310.52051	-461.62555	278.50754	-1304.64856	-477.14993	75.7549	-1359.02209	-530.12958	38.70843	-1403.1322	-336.16507	36.64505	-1379.06091	-451.5246	1708.89807	-1396.15271	-1973.13782	1023.22821	3102.01611	-2012.51025	1022.03223	3140.64087	NaN	NaN	NaN
136	1.35	-450.84454	1672.42224	-1485.7771	-427.32117	1675.43359	-1373.99487	-567.39575	1628.76086	-1468.62952	-545.89105	1630.91565	-1349.42053	-604.9281	1432.02295	-1431.46777	-627.8045	1136.49512	-1423.79956	-460.10751	1369.09131	-1434.07739	-408.84491	1217.87769	-1442.703	-647.92651	1232.45459	-1354.34351	-525.18542	1394.06226	-1594.46252	-545.88373	1212.12024	-1683.08911	-543.90082	1057.84558	-1692.47473	-462.55109	973.68213	-1718.98132	-338.75888	909.13434	-1703.2168	-386.42245	879.30585	-1725.49976	-312.99591	839.4212	-1737.6665	-520.01532	1392.39856	-1280.11609	-585.14374	1193.33325	-1182.18848	-591.30017	1069.67468	-1179.98083	-577.11035	951.32013	-1147.36304	-510.08197	825.89587	-1162.89783	-554.35748	832.29858	-1124.68518	-527.08142	750.25409	-1126.61255	-451.78012	931.95728	-1540.69958	-433.59015	939.09076	-1324.95227	-633.28888	944.89319	-1474.11108	-619.7395	951.32758	-1328.72827	-489.23022	597.22827	-1605.77405	-509.00226	464.02737	-1601.70813	-661.86774	357.4494	-1603.33228	-827.99878	220.81129	-1541.89526	-860.9845	241.23923	-1481.61072	-800.5329	71.28414	-1534.64063	-450.71393	605.83539	-1275.8689	-420.16864	451.70148	-1309.90125	-459.996	278.51703	-1304.08093	-477.01331	75.98485	-1358.76746	-530.13831	38.9395	-1403.12085	-336.01636	36.30632	-1379.02734	-441.18375	1709.72925	-1394.61047	-1973.19153	1023.36731	3102.01538	-2012.53772	1021.96423	3140.59839	NaN	NaN	NaN
137	1.36	-440.55127	1673.35925	-1484.44592	-416.86197	1676.16577	-1372.69653	-557.03717	1629.80334	-1467.28528	-535.45532	1631.72607	-1348.13208	-594.69385	1432.98694	-1430.17651	-617.81073	1137.4248	-1422.5387	-449.93863	1369.86316	-1433.63416	-398.84863	1218.68091	-1442.51514	-637.68152	1233.49512	-1352.81165	-515.73352	1395.14343	-1593.70093	-538.23462	1213	-1681.61401	-537.54248	1058.64307	-1690.32129	-458.21442	972.70013	-1716.76453	-335.78442	905.54309	-1701.16626	-384.10165	876.72345	-1723.35693	-311.5838	835.04132	-1735.20239	-508.94437	1393.09631	-1279.32214	-572.52985	1193.73706	-1180.48035	-578.04987	1069.8772	-1178.13416	-562.12793	951.65399	-1145.77539	-493.59247	827.20923	-1161.9718	-537.5495	832.84949	-1123.34949	-508.95743	751.33832	-1125.54614	-441.84558	932.98682	-1540.10083	-424.12244	939.64362	-1324.09265	-623.48828	945.18683	-1473.67725	-610.26648	951.84753	-1328.34692	-472.36945	598.80792	-1605.80042	-488.71204	465.61716	-1601.55688	-641.03949	359.10068	-1602.44446	-808.11285	224.18916	-1540.25122	-841.09967	243.60371	-1479.2821	-779.73395	74.70018	-1535.42395	-444.37994	605.90851	-1275.62048	-416.68634	451.27322	-1309.19299	-458.39145	278.4866	-1303.50903	-476.89127	76.02863	-1358.60352	-530.22925	39.23363	-1403.08728	-336.08905	36.46761	-1378.91968	-430.63129	1710.4397	-1393.12976	-1972.98352	1023.82098	3102.03735	-2012.57336	1021.99103	3140.71265	NaN	NaN	NaN
138	1.37	-430.20905	1674.27405	-1483.27039	-406.40216	1676.8125	-1371.52771	-546.82666	1630.81946	-1466.14612	-525.04614	1632.46631	-1346.90405	-584.46362	1433.94214	-1428.96094	-607.91266	1138.3241	-1421.31482	-439.81451	1370.52417	-1433.26953	-388.95276	1219.34351	-1442.32056	-627.57617	1234.55078	-1351.51624	-506.27805	1396.20422	-1592.9978	-530.65045	1213.92676	-1680.32776	-531.14178	1059.46802	-1688.2749	-453.8728	971.76605	-1714.61133	-332.98761	901.9209	-1699.14233	-382.03055	874.08594	-1721.08154	-310.47614	830.69019	-1732.77368	-498.03189	1393.78577	-1278.68884	-559.86267	1194.09485	-1178.85681	-564.65594	1070.07446	-1176.29468	-546.92444	951.93286	-1144.13782	-476.73874	828.55969	-1161.06006	-520.62878	833.51385	-1122.21472	-490.65283	752.55011	-1124.46277	-432.03143	934.10388	-1539.4375	-414.69635	940.06329	-1323.20825	-613.78223	945.64862	-1473.33838	-600.98993	952.32477	-1328.06445	-455.54449	600.60205	-1605.77039	-468.44403	467.60342	-1601.40674	-619.94354	360.76447	-1601.17896	-787.47418	226.48283	-1538.75769	-820.94287	244.92503	-1477.24072	-757.21198	77.72472	-1535.76147	-438.0209	606.10358	-1275.39014	-413.47607	451.03522	-1308.55554	-456.58978	278.51993	-1303.02563	-476.85312	76.04711	-1358.39038	-530.23883	39.54359	-1403.03015	-336.0527	36.39098	-1378.70276	-420.21417	1711.15051	-1391.92932	-1973.24963	1023.40283	3101.88672	-2012.48694	1021.93939	3140.73315	NaN	NaN	NaN
